<svg width="68" height="24" viewBox="0 0 68 24" fill="none" xmlns="http://www.w3.org/2000/svg">
<path fill-rule="evenodd" clip-rule="evenodd" d="M9.18346 16.0383C8.32005 17.1634 7.01187 17.8698 5.46821 17.8698C2.3024 17.8698 0 15.4104 0 11.4074C0 7.53514 2.3024 4.89261 5.46821 4.89261C7.03803 4.89261 8.29389 5.57287 9.13113 6.6979V0H13.0818V17.5558H9.18346V16.0383ZM4.16003 11.5644C4.16003 13.8668 5.15425 14.8871 6.72407 14.8871C8.39855 14.8871 9.28811 13.6313 9.28811 11.4859V11.1981C9.28811 9.05264 8.42471 7.87527 6.72407 7.87527C5.18041 7.87527 4.16003 9.00031 4.16003 11.3027V11.5644ZM15.2921 5.20657H19.2689V17.5558H15.2921V5.20657ZM32.5151 9.54975C32.5151 12.4016 30.2912 14.2069 26.8114 14.2069C26.0789 14.2069 25.3986 14.1284 24.7707 13.9452C24.2212 13.9976 23.8549 14.2592 23.8549 14.5993C23.8549 15.018 24.4044 15.3058 25.294 15.3058H28.5121C32.3058 15.3058 34.3466 16.6924 34.3466 19.2303C34.3466 22.056 31.8349 23.6258 27.2562 23.6258C22.8084 23.6258 20.5583 22.4484 20.5583 20.2245C20.5583 19.021 21.3432 18.1314 22.7822 17.6082C21.5787 17.2942 20.8723 16.5093 20.8723 15.4627C20.8723 14.4162 21.6572 13.579 23.0439 13.1342C21.8665 12.3231 21.1863 11.0672 21.1863 9.60207C21.1863 6.90721 23.6195 4.91877 26.9684 4.91877C29.0615 4.91877 30.7622 5.72985 31.7041 7.03803C32.1488 5.88683 32.9861 5.20657 34.2419 5.20657V8.66018C33.6925 8.42471 32.9861 8.39854 32.4366 8.81716C32.489 9.05264 32.5151 9.28811 32.5151 9.54975ZM31.1023 19.8321C31.1023 18.9163 30.2389 18.5239 28.0935 18.5239H25.6864C24.4829 18.6285 23.6718 19.0995 23.6718 19.9106C23.6718 20.774 24.8753 21.2711 27.3347 21.2711C29.7679 21.2711 31.1023 20.7478 31.1023 19.8321ZM24.7968 9.6544C24.7968 10.8841 25.6079 11.669 26.8899 11.669C28.1981 11.669 29.0092 10.9103 29.0092 9.62824V9.49742C29.0092 8.26773 28.1458 7.43049 26.8899 7.43049C25.6602 7.43049 24.7968 8.29389 24.7968 9.49742V9.6544ZM35.5791 5.20657H39.556V17.5558H35.5791V5.20657ZM48.6422 14.6517V17.5558H45.7118C43.1478 17.3727 42.6507 16.1953 42.5984 13.9976V8.00609H40.9501V5.20657H42.5984V2.79952L46.4968 0.889565V5.20657H48.7207V8.00609H46.4706V13.8406C46.4706 14.39 46.7322 14.6255 47.2817 14.6517H48.6422ZM60.7349 13.7621C60.7349 16.1953 58.511 17.9483 55.5022 17.9483C52.8073 17.9483 50.8712 16.9541 49.563 15.5412L51.9962 13.6574C52.8073 14.5993 54.0108 15.2273 55.319 15.2273C56.3394 15.2273 56.9673 14.8348 56.9673 14.1284C56.9673 13.4447 55.9689 13.2284 54.5654 12.9243C54.4114 12.8909 54.2524 12.8564 54.0893 12.8202C52.0224 12.3754 49.7462 11.512 49.7462 8.97415C49.7462 6.61941 51.9439 4.89261 54.8743 4.89261C57.4906 4.89261 59.3744 5.86067 60.6303 7.32583C60.6303 7.37816 58.2755 9.10496 58.2755 9.10496C57.4383 8.16307 56.3133 7.58747 55.0836 7.58747C54.0893 7.58747 53.4876 7.97993 53.4876 8.63402C53.4876 9.37688 54.1647 9.51783 55.961 9.89173L56.0778 9.91604C58.197 10.3347 60.7349 11.1457 60.7349 13.7621Z" fill="#1E266D"/>
<path d="M65.3569 17.58C66.5129 17.58 67.45 16.6429 67.45 15.4869C67.45 14.3309 66.5129 13.3938 65.3569 13.3938C64.2009 13.3938 63.2638 14.3309 63.2638 15.4869C63.2638 16.6429 64.2009 17.58 65.3569 17.58Z" fill="#FF2E6A"/>
<path d="M65.3569 9.20743C66.5129 9.20743 67.45 8.27032 67.45 7.11434C67.45 5.95835 66.5129 5.02124 65.3569 5.02124C64.2009 5.02124 63.2638 5.95835 63.2638 7.11434C63.2638 8.27032 64.2009 9.20743 65.3569 9.20743Z" fill="#FF2E6A"/>
</svg>
